<svg version="1.0" id="Ebene_1" x="0" y="0" xml:space="preserve" width="64.8" height="57.4"
     xmlns="http://www.w3.org/2000/svg"><style type="text/css" id="style1">.st0{fill:none}.st1{fill:#72b52b}.st2{fill:#fbbe00}.st3{fill:#063}.st4{fill:#7b6ca1}.st5{fill:#00b2bf}</style>
    <g id="g33" transform="translate(0 -.1)"><path class="st0" d="M38 30.2c2.3 1.6 5.1 2.6 8.1 2.6h.6c.3-1.2.5-2.5.6-3.8-1-.3-2.1-.4-3.2-.4-2.2.1-4.3.6-6.1 1.6z" id="path1"/>
        <path class="st0" d="M11.5 34.4c-.6 0-1.3.1-1.8.3 1.5 4.2 4.3 7.7 8 10 .5-1 .8-2.1.8-3.3-.3-3.8-3.2-7-7-7z"
              id="path2"/>
        <path class="st0"
              d="M45 37.3c-4-.2-7.7-1.7-10.6-4.1-1.9 2.2-3 5.1-3 8.2 0 2 .5 3.9 1.3 5.6 5.3-1.4 9.8-5 12.3-9.7z"
              id="path3"/>
        <path class="st0"
              d="M34.1 49.1c2.3 3 5.9 4.9 9.9 4.9 7 0 12.7-5.7 12.7-12.7 0-2.3-.6-4.4-1.7-6.3-2.2 1.2-4.7 2-7.4 2.2-2.4 5.8-7.3 10.1-13.5 11.9z"
              id="path4"/>
        <path class="st0"
              d="M32 30.8c-2.8-3.3-4.6-7.5-4.6-12.1 0-3.6 1.1-6.9 2.9-9.8-.8-.1-1.6-.2-2.4-.2-10.7 0-19.4 8.7-19.4 19.4 0 .7 0 1.4.1 2.1.9-.2 1.9-.4 2.9-.4 6.5 0 11.4 5 11.4 11.4 0 1.9-.5 3.6-1.2 5.2 2 .7 4 1 6.2 1 .5 0 1 0 1.5-.1-.8-1.9-1.2-4-1.2-6.1 0-3.9 1.4-7.5 3.8-10.4z"
              id="path5"/>
        <path class="st0" d="M49.2 32.5c1-.2 2-.6 2.9-1-.8-.6-1.6-1.2-2.6-1.6-.1.9-.2 1.8-.3 2.6z" id="path6"/>
        <path class="st0"
              d="M49.4 26.1c2.1.8 4 2 5.6 3.5 3.2-2.6 5.2-6.6 5.2-10.9C60.2 11 54 4.5 46.1 4.5c-3.8 0-7.2 1.5-9.8 3.9 7.1 3.1 12.3 9.8 13.1 17.7z"
              id="path7"/>
        <path class="st0"
              d="M35.3 27.9c2.5-1.7 5.5-2.7 8.7-2.7 1 0 2 .1 3 .3-1-7.1-5.7-13-12.2-15.4-1.9 2.4-3 5.4-3 8.7.1 3.4 1.4 6.6 3.5 9.1z"
              id="path8"/>
        <path class="st0" d="M7.6 35.6c-1.8 1.2-3 3.3-3 5.7 0 3.7 3 7 7 7 1.8 0 3.5-.6 4.7-1.7-4.1-2.6-7.1-6.4-8.7-11z"
              id="path9"/>
        <path class="st1"
              d="M9.7 34.6c-.8.2-1.5.5-2.1 1 1.6 4.5 4.7 8.4 8.7 10.9.6-.5 1.1-1.2 1.5-2-3.8-2.2-6.6-5.7-8.1-9.9z"
              id="path10"/>
        <path class="st1"
              d="M27.9 47.5c-2.2 0-4.3-.4-6.2-1-.4.8-.9 1.5-1.4 2.1 2.4.9 4.9 1.4 7.6 1.4.9 0 1.8-.1 2.7-.2-.5-.8-.9-1.6-1.2-2.4-.5.1-1 .1-1.5.1z"
              id="path11"/>
        <path class="st1"
              d="M8.5 28.2c0-10.7 8.7-19.4 19.4-19.4.8 0 1.6.1 2.4.2.4-.6.8-1.2 1.3-1.8-1.2-.2-2.4-.3-3.6-.3-12-.1-21.7 9.6-21.7 21.5 0 .9.1 1.8.2 2.6.7-.3 1.4-.6 2.2-.8-.1-.6-.2-1.3-.2-2z"
              id="path12"/>
        <path class="st1" d="M47.3 29.1c-.1 1.3-.2 2.6-.6 3.8.8 0 1.7-.1 2.4-.3.2-.9.3-1.7.3-2.6-.6-.4-1.4-.7-2.1-.9z"
              id="path13"/>
        <path class="st1"
              d="M47.1 25.5c.8.2 1.6.4 2.3.7-.8-8-6-14.7-13.1-17.7-.5.5-1 1-1.4 1.6 6.5 2.4 11.2 8.3 12.2 15.4z"
              id="path14"/>
        <path class="st1"
              d="M47.7 37.3c-.5 0-1.1.1-1.6.1-.4 0-.7 0-1.1-.1-2.5 4.7-7 8.3-12.3 9.6.4.8.9 1.5 1.4 2.2 6.2-1.8 11.1-6.1 13.6-11.8z"
              id="path15"/>
        <path class="st2"
              d="M46.1 4.5c8 0 14.2 6.5 14.2 14.2 0 4.3-2.1 8.3-5.2 10.9 1.1 1 2 2.3 2.8 3.6 4.2-3.4 6.9-8.7 6.9-14.5C64.8 8.5 56.4.1 46.2.1c-5.8 0-11.1 2.8-14.5 7 1.6.3 3.2.7 4.7 1.4 2.4-2.4 5.8-4 9.7-4z"
              id="path16"/>
        <path class="st2"
              d="M52 31.5c-.9.4-1.9.8-2.9 1-.3 1.7-.8 3.3-1.5 4.8 2.7-.2 5.2-1 7.4-2.2-.7-1.4-1.7-2.6-3-3.6z"
              id="path17"/>
        <path class="st2"
              d="M46.1 32.9c-3 0-5.8-1-8.1-2.6-1.4.8-2.6 1.8-3.6 2.9 2.9 2.4 6.6 3.9 10.6 4.1.7-1.4 1.3-2.9 1.7-4.5-.2.1-.4.1-.6.1z"
              id="path18"/>
        <path class="st2"
              d="M32 30.8c1-1.1 2.1-2.2 3.3-3-2.1-2.5-3.4-5.7-3.4-9.1 0-3.2 1.1-6.3 3-8.7-1.5-.5-3-.9-4.6-1.1-1.8 2.9-2.9 6.2-2.9 9.8 0 4.6 1.8 8.9 4.6 12.1z"
              id="path19"/>
        <path class="st3"
              d="M34.9 10c.4-.6.9-1.1 1.4-1.6-1.5-.6-3.1-1.1-4.7-1.4-.5.6-.9 1.2-1.3 1.8 1.6.3 3.1.7 4.6 1.2z"
              id="path20"/>
        <path class="st3"
              d="M45 37.3c.4 0 .7.1 1.1.1.5 0 1.1 0 1.6-.1.7-1.5 1.2-3.1 1.5-4.8-.8.2-1.6.3-2.4.3-.5 1.6-1 3.1-1.8 4.5z"
              id="path21"/>
        <path class="st4"
              d="M11.5 48.3c-4 0-7-3.2-7-7 0-2.4 1.2-4.5 3-5.7-.5-1.5-.9-3-1.1-4.6C2.6 32.8 0 36.7 0 41.3c0 6.5 5.2 11.4 11.4 11.4 3.5 0 6.7-1.6 8.8-4.1-1.5-.5-2.8-1.2-4.1-2.1-1.1 1.1-2.7 1.8-4.6 1.8z"
              id="path22"/>
        <path class="st4"
              d="M11.5 29.9c-1 0-2 .1-2.9.4.2 1.5.5 3 1 4.4.6-.2 1.2-.3 1.8-.3 3.7 0 6.7 3.2 7 7 0 1.2-.3 2.3-.8 3.3 1.2.8 2.6 1.4 4 1.9.8-1.5 1.2-3.3 1.2-5.2.2-6.5-4.8-11.5-11.3-11.5z"
              id="path23"/>
        <path class="st3" d="M9.7 34.6c-.5-1.4-.9-2.9-1-4.4-.8.2-1.5.4-2.2.8.2 1.6.6 3.1 1.1 4.6.6-.4 1.3-.8 2.1-1z"
              id="path24"/>
        <path class="st3" d="M17.7 44.6c-.4.8-.9 1.4-1.5 2 1.3.8 2.7 1.5 4.1 2.1.5-.7 1-1.4 1.4-2.1-1.4-.6-2.7-1.2-4-2z"
              id="path25"/>
        <path class="st5"
              d="M38 30.2c1.8-1 3.9-1.6 6.1-1.6 1.1 0 2.2.2 3.2.4v-.9c0-.9-.1-1.8-.2-2.7-1-.2-2-.3-3-.3-3.2 0-6.2 1-8.7 2.7.7 1 1.6 1.8 2.6 2.4z"
              id="path26"/>
        <path class="st5"
              d="M34.4 33.2c-.9-.7-1.7-1.5-2.4-2.3-2.4 2.8-3.8 6.5-3.8 10.5 0 2.2.4 4.2 1.2 6.1 1.1-.1 2.3-.3 3.4-.6-.8-1.7-1.3-3.6-1.3-5.6-.1-3.1 1-5.9 2.9-8.1z"
              id="path27"/>
        <path class="st5"
              d="M49.5 28.4c0 .5 0 1-.1 1.5.9.4 1.8 1 2.6 1.6 1.1-.5 2.1-1.1 3-1.9-1.6-1.5-3.5-2.7-5.6-3.5.1.8.1 1.5.1 2.3z"
              id="path28"/>
        <path class="st5"
              d="M55.1 35.1c1.1 1.9 1.7 4 1.7 6.3 0 7-5.7 12.7-12.7 12.7-4 0-7.6-1.9-9.9-4.9-1.1.3-2.3.6-3.5.7 2.8 4.6 7.8 7.6 13.5 7.6C53 57.5 60 50.3 60 41.3c0-3-.8-5.7-2.2-8.1-.9.7-1.8 1.3-2.7 1.9z"
              id="path29"/>
        <path class="st3" d="M32.7 46.9c-1.1.3-2.2.5-3.4.6.3.8.8 1.6 1.2 2.4 1.2-.1 2.4-.4 3.5-.7-.4-.8-.9-1.5-1.3-2.3z"
              id="path30"/>
        <path class="st5"
              d="M47.3 29.1c.8.2 1.5.5 2.2.8 0-.5.1-1 .1-1.5 0-.8 0-1.5-.1-2.3-.8-.3-1.5-.5-2.3-.7.1.9.2 1.8.2 2.7-.1.4-.1.7-.1 1z"
              id="path31"/>
        <path class="st3"
              d="M38 30.2c-1-.7-1.8-1.5-2.6-2.4-1.2.8-2.4 1.8-3.3 3 .7.8 1.5 1.6 2.4 2.3.9-1.1 2.1-2.1 3.5-2.9z"
              id="path32"/>
        <path class="st3"
              d="M55 29.6c-.9.7-1.9 1.4-3 1.9 1.2 1 2.2 2.2 3 3.6 1-.5 1.9-1.2 2.7-1.9-.7-1.3-1.6-2.5-2.7-3.6z"
              id="path33"/></g></svg>